# xmcd
#
# Track frame offsets: 
#        150
#        19907
#        43952
#        64307
#        80832
#        96657
#        109395
#        129210
#        147952
#        166070
#        181402
#        198670
#        214935
#        230832
#
# Disc length: 3417 seconds
#
# Revision: 0
# Processed by: cddbd v1.5.2PL0 Copyright (c) Steve Scherf et al.
# Submitted via: ExactAudioCopy v0.99pb3
#
DISCID=db0d570e
DTITLE=Loaded Dice - Let 'em Roll
DYEAR=1994
DGENRE=Blues
TTITLE0=Sold Me Out
TTITLE1=So Far Away
TTITLE2=Never Too Late
TTITLE3=Slow It Down
TTITLE4=The Other Side
TTITLE5=Everybody Needs It
TTITLE6=Rock and Roll Suicide
TTITLE7=Dancing With The Angels
TTITLE8=It's Cold
TTITLE9=Heart Aches
TTITLE10=Avenue Of Desire
TTITLE11=Hard Luck Girl
TTITLE12=Little Christine
TTITLE13=Lisa
EXTD=
EXTT0=
EXTT1=
EXTT2=
EXTT3=
EXTT4=
EXTT5=
EXTT6=
EXTT7=
EXTT8=
EXTT9=
EXTT10=
EXTT11=
EXTT12=
EXTT13=
PLAYORDER=
